<svg width="91" height="26" viewBox="0 0 91 26" fill="none" xmlns="http://www.w3.org/2000/svg">
<g id="Group">
<path id="Vector" d="M90.5015 25.1029H85.6938V24.4335H89.8319V1.08469H1.55241V24.4335H46.9912V25.1029H0.882812V0.415283H90.5015V25.1029Z" fill="#3A245C"/>
<g id="Group_2">
<path id="Vector_2" d="M14.5964 20.8321C15.333 20.8321 16.0561 20.8321 16.7927 20.8321C17.0069 20.8321 17.2346 20.8053 17.4489 20.7518C17.6498 20.7116 17.8239 20.6179 18.0247 20.5643C18.3461 20.4706 18.614 20.31 18.8952 20.1226C18.9622 20.069 19.0425 20.0288 19.1095 19.9753C19.3237 19.7744 19.5246 19.5737 19.7255 19.3595C19.9799 19.0917 20.154 18.7704 20.3013 18.4491C20.3817 18.2617 20.4219 18.0474 20.5022 17.8466C20.6094 17.5655 20.6361 17.2575 20.6495 16.9629C20.6495 16.6149 20.6495 16.2534 20.6495 15.9053C20.6495 15.3698 20.5692 14.8343 20.3147 14.3523C20.1942 14.1113 20.0603 13.8703 19.9264 13.6293C19.9264 13.6025 19.8996 13.5892 19.8728 13.5624C19.7925 13.4821 19.7523 13.4821 19.6585 13.5624C19.5246 13.6829 19.3907 13.8168 19.2434 13.9105C18.9354 14.0979 18.614 14.2586 18.3059 14.4193C18.239 14.4594 18.2256 14.4996 18.2658 14.5665C18.2792 14.5933 18.3059 14.6201 18.3327 14.6468C18.4532 14.8343 18.6006 15.0083 18.6675 15.2091C18.7613 15.4367 18.8148 15.6911 18.8148 15.9455C18.8148 16.3739 18.8684 16.8157 18.7479 17.2441C18.7479 17.2441 18.7479 17.2709 18.7479 17.2843C18.6676 17.4851 18.6274 17.7127 18.5202 17.9001C18.2926 18.3018 17.9578 18.583 17.556 18.7838C17.3149 18.9043 17.0605 18.9712 16.7927 18.9712C15.815 18.9712 14.8241 18.9846 13.8465 18.998C13.6991 18.998 13.6455 18.9444 13.6455 18.7971C13.6455 18.7034 13.659 18.5963 13.659 18.5026C13.659 17.6859 13.659 16.8692 13.659 16.0526C13.659 15.9053 13.592 15.7982 13.4715 15.7313C13.2036 15.5706 12.9224 15.4234 12.6412 15.2761C12.4001 15.1422 12.1591 15.0217 11.9046 14.8878C11.8109 14.8343 11.7707 14.8476 11.7573 14.9547C11.7573 14.9949 11.7573 15.0351 11.7573 15.0753C11.7573 15.2359 11.7707 15.3966 11.7707 15.5572C11.7707 16.8023 11.7707 18.0474 11.7707 19.2925C11.7707 19.7477 11.7573 20.1895 11.7573 20.6447C11.7573 20.8455 11.7975 20.8856 11.9984 20.8856C12.1457 20.8856 12.3064 20.8723 12.4537 20.8723C13.1769 20.8723 13.9 20.8723 14.6232 20.8723L14.5964 20.8321ZM24.1448 13.2679C24.1448 11.8488 24.1448 10.4296 24.1448 9.01042C24.1448 8.8096 24.1448 8.59544 24.1448 8.39462C24.1448 8.27413 24.0913 8.23392 23.9707 8.27409C23.944 8.27409 23.9172 8.30092 23.8904 8.32769C23.7699 8.40802 23.6359 8.48833 23.5154 8.55527C23.3547 8.64899 23.1806 8.72932 23.0199 8.80965C22.8592 8.88997 22.7119 8.98367 22.5512 9.03722C22.3369 9.11755 22.2699 9.19785 22.2699 9.42545C22.2699 12.2236 22.2699 15.0083 22.2699 17.8064C22.2699 17.9135 22.2699 18.0207 22.2699 18.1144C22.2699 18.1947 22.3101 18.2348 22.3905 18.2348C22.4306 18.2348 22.4709 18.2348 22.511 18.2348C22.9797 18.2348 23.435 18.2348 23.9038 18.2348C23.9439 18.2348 23.9975 18.2348 24.0377 18.2348C24.118 18.2348 24.1716 18.1813 24.1582 18.0876C24.1582 18.0206 24.1582 17.9403 24.1582 17.8733C24.1582 16.3337 24.1582 14.7941 24.1582 13.2411L24.1448 13.2679Z" fill="#3A245C"/>
<path id="Vector_3" d="M7.92717 13.2411C7.92717 14.687 7.92717 16.1195 7.92717 17.5655C7.92717 17.7529 7.92717 17.9537 7.92717 18.1411C7.92717 18.3286 8.00754 18.4089 8.19502 18.4089C8.42269 18.4089 8.63696 18.4089 8.86462 18.4089C9.15924 18.4089 9.45387 18.4089 9.74849 18.4089C9.92259 18.4089 9.98951 18.3286 10.0029 18.1545C10.0029 18.1278 10.0029 18.0876 10.0029 18.0608C10.0029 15.9187 10.0029 13.79 10.0029 11.6479C10.0029 11.6078 10.0163 11.5408 10.0431 11.5274C10.0833 11.5274 10.1502 11.5274 10.1904 11.5542C10.2708 11.5944 10.3377 11.6346 10.4181 11.6747C10.5386 11.7417 10.6591 11.7952 10.7797 11.8621C10.8064 11.8621 10.8198 11.9023 10.8332 11.9157C10.8734 11.9425 10.9136 11.9693 10.9538 11.9826C11.1011 12.0496 11.235 12.1165 11.3823 12.1834C11.5296 12.2637 11.6769 12.3575 11.8242 12.4378C11.851 12.4512 11.8912 12.4646 11.9313 12.478C11.9581 12.478 11.9983 12.5047 12.0251 12.5181C12.1724 12.5984 12.3063 12.6922 12.467 12.7725C12.6144 12.8528 12.775 12.9198 12.9357 12.9867C12.9357 12.9867 12.9357 12.9867 12.9491 12.9867C13.0964 13.0671 13.2438 13.1608 13.3911 13.2411C13.5384 13.3215 13.6991 13.3884 13.8464 13.4553C13.8598 13.4553 13.8866 13.4821 13.9 13.4821C13.9669 13.5223 14.0205 13.5491 14.0875 13.5892C14.1276 13.616 14.1678 13.6294 14.2214 13.6562C14.275 13.6829 14.3419 13.7097 14.3955 13.7499C14.4357 13.7767 14.4758 13.8034 14.516 13.8302C14.5562 13.857 14.583 13.8837 14.6231 13.8971C14.7035 13.9373 14.7838 13.9775 14.8642 14.0177C14.9043 14.0444 14.9579 14.0578 14.9981 14.0712C15.0383 14.0846 15.0651 14.0979 15.1053 14.1247C15.1722 14.1649 15.2525 14.2051 15.3195 14.2452C15.3463 14.2586 15.3865 14.272 15.4132 14.2854C15.4802 14.3255 15.5472 14.3657 15.6141 14.3925C15.6543 14.4193 15.7079 14.4326 15.748 14.4728C15.8686 14.5799 16.1364 14.5933 16.2703 14.513C16.3507 14.4595 16.4444 14.4192 16.5248 14.3657C16.5516 14.3523 16.5784 14.3389 16.6051 14.3256C16.7391 14.2452 16.8864 14.1649 17.0203 14.0846C17.1676 14.0043 17.3283 13.9373 17.4756 13.8703C17.5024 13.8703 17.5158 13.8302 17.5426 13.8168C17.5827 13.79 17.6095 13.7767 17.6497 13.7499C17.797 13.6829 17.9443 13.6026 18.0783 13.5356C18.239 13.4553 18.3863 13.3616 18.5336 13.2812C18.6139 13.2277 18.7077 13.1741 18.788 13.1206C18.9755 12.9867 19.163 12.8796 19.3237 12.719C19.5246 12.5181 19.6987 12.2906 19.8861 12.0764C19.9531 11.996 20.0067 11.9023 20.0602 11.8086C20.1406 11.6747 20.2477 11.5408 20.3147 11.3936C20.395 11.2195 20.462 11.0321 20.529 10.858C20.529 10.858 20.5423 10.8313 20.5557 10.8179C20.5825 10.7242 20.6361 10.6438 20.6495 10.5501C20.6763 10.4162 20.6897 10.2824 20.7031 10.1485C20.7298 9.98782 20.7834 9.81379 20.7834 9.65313C20.7834 9.1176 20.7834 8.56866 20.6897 8.03314C20.6361 7.75199 20.5022 7.51104 20.462 7.22989C20.462 7.22989 20.462 7.20307 20.4486 7.18968C20.3549 7.02903 20.2745 6.86839 20.1808 6.70773C20.1406 6.6274 20.087 6.5471 20.0335 6.48016C19.9531 6.35966 19.8728 6.22576 19.779 6.11865C19.6451 5.97138 19.5112 5.83751 19.3639 5.70363C19.1898 5.55636 19.0023 5.39569 18.8148 5.2752C18.6809 5.18148 18.5336 5.12796 18.3862 5.06102C18.3729 5.06102 18.3461 5.04761 18.3327 5.03422C18.2523 4.95389 18.1586 4.92708 18.0515 4.91369C18.0113 4.91369 17.9577 4.91374 17.9175 4.87357C17.797 4.77985 17.6497 4.76643 17.5024 4.75304C17.3952 4.73965 17.2881 4.71291 17.1676 4.69952C17.0471 4.67274 16.9399 4.646 16.8194 4.646C15.1722 4.646 13.525 4.646 11.8778 4.646C11.7171 4.646 11.6635 4.69951 11.6501 4.86017C11.6501 4.90033 11.6501 4.95385 11.6501 4.99402C11.6501 5.81069 11.6501 6.62739 11.6501 7.44406C11.6501 7.49761 11.6501 7.56455 11.6501 7.60471C11.6769 7.67165 11.7037 7.7386 11.7573 7.77876C11.851 7.85909 11.9448 7.91266 12.0519 7.96622C12.1189 8.00638 12.1724 8.03318 12.2394 8.07334C12.2662 8.08673 12.3063 8.11348 12.3331 8.12687C12.4001 8.16703 12.467 8.19383 12.534 8.23399C12.5742 8.24738 12.6143 8.26074 12.6411 8.28752C12.775 8.36785 12.8956 8.46155 13.0161 8.52849C13.1768 8.62221 13.3375 8.68915 13.4982 8.78287C13.5786 8.83642 13.6321 8.80968 13.6723 8.72935C13.6991 8.67579 13.6991 8.62225 13.6991 8.5687C13.6991 8.01978 13.6991 7.47083 13.6991 6.93531C13.6991 6.78804 13.7125 6.77464 13.8598 6.76126C13.8866 6.76126 13.9134 6.76126 13.9268 6.76126C14.7571 6.76126 15.5873 6.76126 16.4176 6.76126C16.739 6.76126 17.0738 6.76125 17.3819 6.92191C17.556 7.01562 17.73 7.08259 17.8774 7.20309C18.1586 7.41729 18.3729 7.68505 18.48 8.03314C18.48 8.05992 18.5068 8.08669 18.5202 8.11347C18.547 8.19379 18.6005 8.28753 18.6005 8.38124C18.6139 8.8766 18.6139 9.37194 18.6139 9.8673C18.6139 9.98779 18.6005 10.1217 18.5068 10.2154C18.48 10.2556 18.4666 10.3091 18.4532 10.3627C18.4398 10.4162 18.4264 10.4698 18.3997 10.5233C18.3059 10.6706 18.1988 10.8179 18.0916 10.9517C17.8907 11.2061 17.6229 11.3668 17.3551 11.5408C17.2078 11.6345 17.0471 11.6881 16.8998 11.7684C16.873 11.7684 16.8596 11.8086 16.8328 11.822C16.7926 11.8488 16.7524 11.8621 16.7123 11.8889C16.5516 11.9692 16.3909 12.0496 16.2302 12.1299C16.2302 12.1299 16.2168 12.1433 16.2034 12.1567C16.1632 12.1835 16.1097 12.2102 16.0695 12.2236C15.815 12.2772 15.6677 12.0496 15.4534 11.996C15.4132 11.9693 15.3731 11.9425 15.3195 11.9157C15.1722 11.8488 15.0249 11.7818 14.8776 11.7015C14.8776 11.7015 14.8508 11.6881 14.8508 11.6747C14.7035 11.5944 14.5562 11.5007 14.4089 11.4204C14.2615 11.34 14.1142 11.2864 13.9669 11.2061C13.7794 11.1124 13.5919 11.0053 13.4045 10.9116C13.3777 10.9116 13.3643 10.8848 13.3375 10.8714C13.1902 10.7777 13.0295 10.684 12.8822 10.6036C12.8554 10.6036 12.8286 10.6037 12.8152 10.5769C12.7884 10.5769 12.7616 10.5501 12.7349 10.5367C12.5742 10.4564 12.4268 10.3627 12.2661 10.2823C12.1188 10.202 11.9581 10.1351 11.8108 10.0682C11.8108 10.0682 11.7974 10.0681 11.784 10.0548C11.6367 9.97443 11.5028 9.88071 11.3555 9.80038C11.2082 9.72005 11.0609 9.66653 10.9136 9.5862C10.9002 9.5862 10.8868 9.5594 10.8734 9.5594C10.7395 9.47907 10.6055 9.39875 10.4716 9.31843C10.4448 9.30504 10.4047 9.30501 10.3779 9.29162C10.3377 9.27824 10.2975 9.25149 10.2708 9.2381C10.2038 9.19794 10.1369 9.17114 10.0833 9.13097C10.0431 9.11759 10.0163 9.10416 9.97613 9.09077C9.89578 9.05061 9.81544 9.01049 9.73509 8.97032C9.7083 8.95693 9.66812 8.94351 9.64133 8.93012C9.48063 8.84979 9.33331 8.75607 9.17261 8.67574C9.0253 8.59541 8.878 8.52851 8.73069 8.46157C8.73069 8.46157 8.71732 8.44817 8.70392 8.44817C8.63696 8.408 8.56997 8.36788 8.50301 8.32772C8.44944 8.30094 8.40929 8.27417 8.35572 8.2474C8.26198 8.20723 8.15484 8.16704 8.0611 8.14027C8.03431 8.14027 7.96736 8.19383 7.94057 8.23399C7.91379 8.27416 7.92717 8.32768 7.92717 8.36784C7.92717 9.9878 7.92717 11.6078 7.92717 13.2411Z" fill="#3A245C"/>
</g>
<g id="Group_3">
<path id="Vector_4" d="M27.6133 9.198H31.1354C32.662 9.198 33.6262 9.98792 33.6262 11.233C33.6262 12.13 32.9566 12.8931 32.0594 13.0003V13.0404C33.1843 13.1207 34.0012 13.924 34.0012 14.9817C34.0012 16.4142 32.9299 17.2978 31.2023 17.2978H27.6133V9.198ZM29.314 10.4565V12.5852H30.4925C31.4434 12.5852 31.9522 12.1836 31.9522 11.4874C31.9522 10.8314 31.4835 10.4565 30.6934 10.4565H29.3006H29.314ZM29.314 13.7232V16.026H30.7738C31.738 16.026 32.2736 15.6243 32.2736 14.8745C32.2736 14.1248 31.738 13.7232 30.6934 13.7232H29.314Z" fill="#3A245C"/>
<path id="Vector_5" d="M34.604 15.5706C34.604 14.4594 35.4477 13.8302 36.9476 13.7365L38.4341 13.6428V13.2679C38.4341 12.7324 38.0859 12.3977 37.4431 12.3977C36.8003 12.3977 36.4655 12.6788 36.3851 13.0671V13.1206H34.8718V13.0537C34.9656 11.9425 35.9164 11.1526 37.51 11.1526C39.1037 11.1526 40.0679 11.9559 40.0679 13.1608V17.2844H38.4341V16.3873H38.3939C38.0457 17.0031 37.4163 17.378 36.6262 17.378C35.4209 17.378 34.604 16.6149 34.604 15.5572V15.5706ZM37.1485 16.1865C37.885 16.1865 38.4207 15.7179 38.4207 15.0887V14.6603L37.1752 14.7406C36.5458 14.7808 36.211 15.0485 36.211 15.4769C36.211 15.9321 36.5726 16.1998 37.1485 16.1998V16.1865Z" fill="#3A245C"/>
<path id="Vector_6" d="M41.5407 15.611V12.5183H40.7104V11.2866H41.5407V9.81396H43.2014V11.2866H44.2994V12.5183H43.2014V15.437C43.2014 15.9993 43.4558 16.1867 43.9513 16.1867C44.0986 16.1867 44.2057 16.1733 44.2994 16.1599V17.3649C44.1119 17.3916 43.8442 17.4318 43.5094 17.4318C42.1702 17.4318 41.5407 16.9096 41.5407 15.6243V15.611Z" fill="#3A245C"/>
<path id="Vector_7" d="M44.9022 14.272C44.9022 12.3442 46.0539 11.1526 47.8485 11.1526C49.4823 11.1526 50.5134 12.1567 50.5804 13.4553V13.4955H49.0538V13.4419C48.9466 12.8662 48.5448 12.4378 47.8619 12.4378C47.0583 12.4378 46.5495 13.134 46.5495 14.272C46.5495 15.4502 47.0583 16.1195 47.8619 16.1195C48.5181 16.1195 48.9332 15.7179 49.0404 15.1154V15.0619H50.5671V15.1021C50.4867 16.4141 49.4555 17.4182 47.8485 17.4182C46.0138 17.4182 44.8755 16.2266 44.8755 14.2854L44.9022 14.272Z" fill="#3A245C"/>
<path id="Vector_8" d="M51.4238 9.19797H53.0577V12.3174H53.0978C53.4058 11.5677 54.0353 11.1527 54.9459 11.1527C56.2449 11.1527 57.0619 12.0631 57.0619 13.509V17.2844H55.4281V13.8437C55.4281 13.0002 55.0129 12.5049 54.2629 12.5049C53.513 12.5049 53.0711 13.0538 53.0711 13.8437V17.2844H51.4372V9.18457L51.4238 9.19797Z" fill="#3A245C"/>
<path id="Vector_9" d="M58.2407 9.198H60.196L62.4993 15.0085H62.5396L64.8429 9.198H66.7982V17.2978H65.2849V11.8221H65.2313L63.0484 17.2978H61.977L59.7941 11.8221H59.754V17.2978H58.2407V9.198Z" fill="#3A245C"/>
<path id="Vector_10" d="M67.6416 15.5706C67.6416 14.4594 68.4853 13.8302 69.9852 13.7365L71.4717 13.6428V13.2679C71.4717 12.7324 71.1235 12.3977 70.4807 12.3977C69.8379 12.3977 69.503 12.6788 69.4227 13.0671V13.1206H67.9094V13.0537C68.0031 11.9425 68.954 11.1526 70.5476 11.1526C72.1413 11.1526 73.1054 11.9559 73.1054 13.1608V17.2844H71.4717V16.3873H71.4315C71.0833 17.0031 70.4538 17.378 69.6637 17.378C68.4584 17.378 67.6416 16.6149 67.6416 15.5572V15.5706ZM70.186 16.1865C70.9226 16.1865 71.4583 15.7179 71.4583 15.0887V14.6603L70.2128 14.7406C69.5834 14.7808 69.2486 15.0485 69.2486 15.4769C69.2486 15.9321 69.6102 16.1998 70.186 16.1998V16.1865Z" fill="#3A245C"/>
<path id="Vector_11" d="M74.5788 15.611V12.5183H73.7485V11.2866H74.5788V9.81396H76.2394V11.2866H77.3376V12.5183H76.2394V15.437C76.2394 15.9993 76.4939 16.1867 76.9894 16.1867C77.1367 16.1867 77.2438 16.1733 77.3376 16.1599V17.3649C77.1501 17.3916 76.8822 17.4318 76.5474 17.4318C75.2082 17.4318 74.5788 16.9096 74.5788 15.6243V15.611Z" fill="#3A245C"/>
<path id="Vector_12" d="M77.9399 14.2988C77.9399 12.3843 79.0648 11.1526 80.8326 11.1526C82.6003 11.1526 83.6984 12.3441 83.6984 14.1649V14.6737H79.5603C79.5737 15.6376 80.096 16.1998 80.9397 16.1998C81.6093 16.1998 82.0244 15.825 82.1449 15.4903V15.4501H83.6582V15.5171C83.4574 16.4007 82.6271 17.4182 80.9129 17.4182C79.0782 17.4182 77.9533 16.2266 77.9533 14.2988H77.9399ZM79.5737 13.6428H82.1315C82.0244 12.8127 81.5424 12.3843 80.8594 12.3843C80.1764 12.3843 79.6809 12.8395 79.5737 13.6428Z" fill="#3A245C"/>
</g>
<g id="Group_4">
<path id="Vector_13" d="M49.8975 23.6569H50.5804C50.7009 23.6569 50.8081 23.6569 50.9019 23.6837C50.9956 23.7105 51.076 23.7372 51.1563 23.7774C51.2233 23.8176 51.2768 23.8845 51.317 23.9515C51.3572 24.0184 51.3705 24.1121 51.3705 24.2058C51.3705 24.3263 51.3437 24.42 51.2768 24.5137C51.2098 24.6074 51.1161 24.6744 50.9822 24.7012C51.1563 24.7413 51.2768 24.7949 51.3705 24.8886C51.4643 24.9824 51.5044 25.1028 51.5044 25.2635C51.5044 25.3706 51.4777 25.4777 51.4375 25.558C51.3973 25.6384 51.3303 25.7053 51.2634 25.7722C51.183 25.8258 51.0893 25.866 50.9822 25.8927C50.8751 25.9195 50.7545 25.9329 50.634 25.9329H49.8975V23.6436V23.6569ZM50.5268 24.6343C50.7277 24.6343 50.8616 24.5941 50.9554 24.5271C51.0357 24.4602 51.0893 24.3664 51.0893 24.2326C51.0893 24.0987 51.0491 24.0184 50.9554 23.9649C50.8616 23.9113 50.7277 23.8845 50.5537 23.8845H50.2054V24.6343H50.5402H50.5268ZM50.5938 25.7187C50.7947 25.7187 50.942 25.6785 51.0491 25.6116C51.1563 25.5446 51.2098 25.4241 51.2098 25.2635C51.2098 25.1162 51.1563 25.0225 51.0491 24.9556C50.942 24.8886 50.7813 24.8618 50.5804 24.8618H50.1786V25.7321H50.5804L50.5938 25.7187Z" fill="#3A245C"/>
<path id="Vector_14" d="M52.6293 25.0628L51.9463 23.657H52.2543L52.5489 24.2997C52.5891 24.38 52.6159 24.4603 52.6561 24.554C52.6963 24.6344 52.723 24.7147 52.7632 24.8084H52.7766C52.8168 24.7281 52.857 24.6344 52.8971 24.554C52.9373 24.4737 52.9774 24.3934 53.0042 24.2997L53.2989 23.657H53.6069L52.9239 25.0628V25.9464H52.6293V25.0628Z" fill="#3A245C"/>
<path id="Vector_15" d="M55.8033 23.9114H55.1069V23.6704H56.7809V23.9114H56.0846V25.9598H55.7899V23.9114H55.8033Z" fill="#3A245C"/>
<path id="Vector_16" d="M58.8033 25.9464L58.2542 24.9825H57.8391V25.9464H57.5444V23.657H58.2542C58.3748 23.657 58.4819 23.657 58.5756 23.6838C58.6694 23.7106 58.7631 23.7374 58.8301 23.7909C58.897 23.8445 58.9506 23.9114 58.9908 23.9917C59.031 24.072 59.0443 24.1792 59.0443 24.2863C59.0443 24.4603 59.0042 24.6076 58.9104 24.7147C58.8167 24.8218 58.6961 24.8887 58.5354 24.9289L59.1113 25.933H58.7765L58.8033 25.9464ZM57.8391 24.7414H58.2274C58.4015 24.7414 58.5488 24.7013 58.6426 24.6344C58.7363 24.5674 58.7899 24.4469 58.7899 24.2997C58.7899 24.1524 58.7363 24.0453 58.6426 23.9784C58.5488 23.9114 58.4149 23.8846 58.2274 23.8846H57.8391V24.7414Z" fill="#3A245C"/>
<path id="Vector_17" d="M59.9282 23.657H60.2228V25.9464H59.9282V23.657Z" fill="#3A245C"/>
<path id="Vector_18" d="M62.245 25.2502H61.4147L61.2004 25.9464H60.9058L61.6825 23.657H62.0173L62.7941 25.9464H62.486L62.2718 25.2502H62.245ZM62.1646 25.0226L62.0574 24.6745C62.0173 24.5406 61.9771 24.4201 61.937 24.2863C61.8968 24.1658 61.8566 24.0318 61.8298 23.898H61.8164C61.7762 24.0318 61.7494 24.1658 61.7092 24.2863C61.6691 24.4068 61.6289 24.5406 61.5888 24.6745L61.4816 25.0226H62.1646Z" fill="#3A245C"/>
<path id="Vector_19" d="M64.4944 23.657H65.1908C65.3113 23.657 65.4318 23.657 65.539 23.6972C65.6461 23.724 65.7265 23.7641 65.8068 23.8043C65.8738 23.8579 65.9407 23.9248 65.9808 24.0185C66.021 24.0988 66.0479 24.2059 66.0479 24.3398C66.0479 24.4737 66.021 24.5674 65.9808 24.6478C65.9407 24.7415 65.8872 24.8084 65.8068 24.8619C65.7265 24.9155 65.6461 24.969 65.539 24.9958C65.4318 25.0226 65.3247 25.036 65.1908 25.036H64.7756V25.9464H64.481V23.657H64.4944ZM65.164 24.8084C65.3648 24.8084 65.5122 24.7682 65.6059 24.7013C65.6997 24.621 65.7532 24.5004 65.7532 24.3398C65.7532 24.1791 65.6997 24.0586 65.6059 23.9917C65.5122 23.9247 65.3648 23.898 65.164 23.898H64.789V24.8084H65.164Z" fill="#3A245C"/>
<path id="Vector_20" d="M68.1236 25.9464L67.5745 24.9825H67.1593V25.9464H66.8647V23.657H67.5745C67.695 23.657 67.8022 23.657 67.8959 23.6838C67.9897 23.7106 68.0834 23.7374 68.1504 23.7909C68.2174 23.8445 68.2709 23.9114 68.3111 23.9917C68.3513 24.072 68.3646 24.1792 68.3646 24.2863C68.3646 24.4603 68.3245 24.6076 68.2307 24.7147C68.137 24.8218 68.0164 24.8887 67.8557 24.9289L68.4316 25.933H68.0968L68.1236 25.9464ZM67.146 24.7414H67.5343C67.7084 24.7414 67.8557 24.7013 67.9495 24.6344C68.0432 24.5674 68.0968 24.4469 68.0968 24.2997C68.0968 24.1524 68.0432 24.0453 67.9495 23.9784C67.8557 23.9114 67.7218 23.8846 67.5343 23.8846H67.146V24.7414Z" fill="#3A245C"/>
<path id="Vector_21" d="M70.0791 26C69.9318 26 69.7979 25.9732 69.6774 25.9197C69.5569 25.8661 69.4498 25.7858 69.3694 25.6787C69.2891 25.5716 69.2221 25.4512 69.1685 25.3039C69.1149 25.1566 69.1016 24.996 69.1016 24.8085C69.1016 24.6211 69.1283 24.4604 69.1685 24.3132C69.2221 24.1659 69.2891 24.0454 69.3694 23.9383C69.4498 23.8312 69.5569 23.7642 69.6774 23.7107C69.7979 23.6571 69.9318 23.6304 70.0791 23.6304C70.2265 23.6304 70.3604 23.6571 70.481 23.7107C70.6015 23.7642 70.7086 23.8446 70.789 23.9383C70.8827 24.0454 70.9497 24.1659 70.9899 24.3132C71.0434 24.4604 71.0568 24.6211 71.0568 24.8085C71.0568 24.996 71.03 25.1566 70.9899 25.3039C70.9497 25.4512 70.8693 25.5716 70.789 25.6787C70.6952 25.7858 70.6015 25.8661 70.481 25.9197C70.3604 25.9732 70.2265 26 70.0791 26ZM70.0791 25.7456C70.1863 25.7456 70.2801 25.7189 70.3604 25.6787C70.4408 25.6385 70.5078 25.5716 70.5747 25.4913C70.6283 25.4109 70.6818 25.3039 70.7086 25.1968C70.7354 25.0763 70.7621 24.9558 70.7621 24.8085C70.7621 24.6613 70.7488 24.5407 70.7086 24.4202C70.6818 24.2997 70.6283 24.2061 70.5747 24.1257C70.5212 24.0454 70.4408 23.9918 70.3604 23.9383C70.2801 23.8981 70.1863 23.8713 70.0791 23.8713C69.972 23.8713 69.8783 23.8981 69.798 23.9383C69.7176 23.9784 69.6506 24.0454 69.5837 24.1257C69.5301 24.2061 69.4765 24.2997 69.4498 24.4202C69.423 24.5407 69.3962 24.6613 69.3962 24.8085C69.3962 24.9558 69.4096 25.0763 69.4498 25.1968C69.4765 25.3172 69.5301 25.4109 69.5837 25.4913C69.6372 25.5716 69.7176 25.6385 69.798 25.6787C69.8783 25.7189 69.972 25.7456 70.0791 25.7456Z" fill="#3A245C"/>
<path id="Vector_22" d="M71.9136 23.657H72.4894C72.8376 23.657 73.1188 23.7507 73.2929 23.9516C73.467 24.1524 73.5742 24.4335 73.5742 24.795C73.5742 24.9825 73.5474 25.1431 73.5072 25.277C73.467 25.4242 73.3867 25.5448 73.3063 25.6385C73.2126 25.7322 73.1054 25.8125 72.9715 25.866C72.8376 25.9196 72.6902 25.9464 72.5161 25.9464H71.9269V23.657H71.9136ZM72.4626 25.7188C72.7304 25.7188 72.9313 25.6385 73.0653 25.4778C73.1992 25.3172 73.2661 25.0896 73.2661 24.795C73.2661 24.5005 73.1992 24.2863 73.0653 24.1256C72.9313 23.9783 72.7304 23.898 72.4626 23.898H72.1948V25.7188H72.4626Z" fill="#3A245C"/>
<path id="Vector_23" d="M74.3911 23.657H74.6857V25.0092C74.6857 25.1431 74.6991 25.2636 74.7259 25.3573C74.7527 25.451 74.7929 25.5313 74.8331 25.5849C74.8866 25.6384 74.9402 25.6786 75.0072 25.7054C75.0741 25.7322 75.1411 25.7455 75.2214 25.7455C75.3018 25.7455 75.3687 25.7456 75.4356 25.7054C75.5026 25.6786 75.5562 25.6384 75.6097 25.5849C75.6633 25.5313 75.7035 25.451 75.7303 25.3573C75.7571 25.2636 75.7704 25.1431 75.7704 25.0092V23.657H76.0517V24.9958C76.0517 25.1832 76.0249 25.3305 75.9848 25.4644C75.9446 25.5983 75.891 25.692 75.8107 25.7723C75.7303 25.8527 75.6499 25.9062 75.5562 25.9464C75.4625 25.9865 75.3419 25.9999 75.2348 25.9999C75.1277 25.9999 75.0072 25.9865 74.9134 25.9464C74.8197 25.9062 74.7259 25.8527 74.6456 25.7723C74.5652 25.692 74.5116 25.5983 74.4715 25.4644C74.4313 25.3439 74.4045 25.1832 74.4045 24.9958V23.657H74.3911Z" fill="#3A245C"/>
<path id="Vector_24" d="M76.8823 24.8085C76.8823 24.6211 76.9091 24.4604 76.9627 24.3132C77.0162 24.1659 77.0832 24.0453 77.177 23.9382C77.2707 23.8311 77.3779 23.7508 77.4984 23.6973C77.6189 23.6437 77.7528 23.6169 77.9001 23.6169C78.0474 23.6169 78.168 23.6437 78.2617 23.6973C78.3689 23.7508 78.4492 23.8177 78.5162 23.898L78.3555 24.0855C78.3555 24.0855 78.2215 23.965 78.1546 23.9248C78.0876 23.8847 77.9939 23.8713 77.9001 23.8713C77.793 23.8713 77.6859 23.8981 77.6055 23.9382C77.5118 23.9784 77.4448 24.0454 77.3778 24.1257C77.3109 24.206 77.2707 24.2997 77.2305 24.4202C77.1904 24.5407 77.177 24.6612 77.177 24.8085C77.177 24.9558 77.1904 25.0762 77.2305 25.1967C77.2707 25.3172 77.3109 25.4109 77.3778 25.4912C77.4448 25.5716 77.5118 25.6385 77.6055 25.6787C77.6993 25.7188 77.793 25.7456 77.9001 25.7456C78.0073 25.7456 78.1144 25.7188 78.1948 25.6787C78.2751 25.6385 78.3555 25.5716 78.4358 25.4912L78.5965 25.6653C78.5028 25.7724 78.409 25.8527 78.2885 25.9063C78.1679 25.9598 78.0474 26 77.9001 26C77.7528 26 77.6189 25.9732 77.4984 25.9197C77.3779 25.8661 77.2707 25.7858 77.177 25.6921C77.0832 25.585 77.0162 25.4645 76.9627 25.3173C76.9091 25.17 76.8823 24.9959 76.8823 24.8218V24.8085Z" fill="#3A245C"/>
<path id="Vector_25" d="M79.7613 23.9114H79.0649V23.6704H80.7389V23.9114H80.0425V25.9598H79.7479V23.9114H79.7613Z" fill="#3A245C"/>
<path id="Vector_26" d="M81.3818 25.4511C81.4621 25.5315 81.5559 25.6118 81.6764 25.6653C81.7836 25.7189 81.9041 25.7456 82.0246 25.7456C82.1719 25.7456 82.2925 25.7055 82.3728 25.6386C82.4532 25.5716 82.4933 25.4779 82.4933 25.3708C82.4933 25.3173 82.4933 25.2637 82.4665 25.2236C82.4531 25.1834 82.4263 25.1432 82.3862 25.1164C82.346 25.0897 82.3058 25.0629 82.2657 25.0361C82.2255 25.0093 82.1719 24.9826 82.1184 24.9692L81.7836 24.8218C81.7836 24.8218 81.6765 24.7683 81.6229 24.7415C81.5693 24.7147 81.5157 24.6746 81.4755 24.6211C81.4353 24.5809 81.3952 24.514 81.3684 24.4604C81.3417 24.3935 81.3282 24.3265 81.3282 24.2328C81.3282 24.1391 81.3416 24.0721 81.3818 23.9918C81.4219 23.9115 81.4622 23.858 81.5291 23.8044C81.5961 23.7509 81.663 23.7107 81.7568 23.6705C81.8505 23.6437 81.9442 23.6304 82.0514 23.6304C82.1853 23.6304 82.3192 23.6571 82.4264 23.7107C82.5469 23.7642 82.6406 23.8311 82.721 23.9115L82.5603 24.0989C82.4933 24.032 82.413 23.9784 82.3326 23.9383C82.2523 23.8981 82.1452 23.8847 82.038 23.8847C81.9041 23.8847 81.8103 23.9115 81.73 23.9785C81.6496 24.0454 81.6095 24.1257 81.6095 24.2195C81.6095 24.273 81.6094 24.3265 81.6362 24.3667C81.663 24.4069 81.6898 24.4337 81.73 24.4738C81.7701 24.5006 81.8104 24.5274 81.8505 24.5542C81.8907 24.5809 81.9442 24.5943 81.9844 24.6211L82.3058 24.7549C82.3058 24.7549 82.4264 24.8085 82.4933 24.8487C82.5469 24.8888 82.6004 24.929 82.6406 24.9692C82.6808 25.0227 82.721 25.0763 82.7344 25.1432C82.7477 25.2102 82.7746 25.2771 82.7746 25.3708C82.7746 25.4645 82.7611 25.5449 82.721 25.6252C82.6808 25.7055 82.6272 25.7724 82.5603 25.8394C82.4933 25.8929 82.413 25.9465 82.3192 25.9733C82.2255 26.0135 82.1183 26.0268 81.9978 26.0268C81.8371 26.0268 81.6898 26 81.5559 25.9331C81.4219 25.8661 81.3015 25.7858 81.1943 25.6787L81.3684 25.4779L81.3818 25.4511Z" fill="#3A245C"/>
</g>
</g>
</svg>
