<svg width="127" height="41" viewBox="0 0 127 41" fill="none" xmlns="http://www.w3.org/2000/svg">
<g id="Group">
<g id="Group_2">
<path id="Vector" d="M121.489 24.9287H105.017L100.451 32.8411H126.043L121.489 24.9287Z" fill="#3A245D"/>
<path id="Vector_2" d="M119.909 22.1975L107.106 0L102.566 7.85881L110.843 22.1975H119.909Z" fill="#3A245D"/>
<path id="Vector_3" d="M101.027 10.5364L88.1436 32.8409H97.4108L105.66 18.5023L101.027 10.5364Z" fill="#3A245D"/>
</g>
<g id="Group_3">
<path id="Vector_4" d="M21.8405 15.3428H20.6754C20.5683 14.9412 20.3942 14.4592 20.1264 13.8969C19.8585 13.3346 19.5639 12.8125 19.2425 12.3171C18.9077 11.795 18.5327 11.3398 18.131 10.9515C17.7292 10.5633 17.3408 10.3357 16.9659 10.2821C16.6177 10.242 16.1757 10.2018 15.6401 10.175C15.1044 10.1483 14.6223 10.1349 14.167 10.1349H13.1894V29.3334C13.1894 29.7083 13.2697 30.043 13.4304 30.3509C13.5911 30.6588 13.8589 30.8998 14.2607 31.0738C14.4616 31.1542 14.8901 31.2613 15.5329 31.3952C16.1757 31.529 16.6846 31.6094 17.0462 31.6094V32.8143H5.70328V31.6094C6.02468 31.5826 6.50679 31.5424 7.1496 31.4755C7.79241 31.4085 8.24774 31.3282 8.48879 31.2211C8.86377 31.0738 9.13161 30.8596 9.3057 30.5919C9.47979 30.3107 9.57354 29.9492 9.57354 29.4807V10.1483H8.59593C8.24774 10.1483 7.80581 10.1483 7.29691 10.175C6.77463 10.1884 6.27913 10.2286 5.81041 10.2821C5.43544 10.3223 5.04707 10.5499 4.64531 10.9515C4.24356 11.3532 3.88197 11.8084 3.53378 12.3171C3.18559 12.8259 2.89097 13.3614 2.63653 13.9371C2.38208 14.5128 2.19459 14.9814 2.10085 15.3562H0.922363V8.84961H21.8539V15.3562L21.8405 15.3428Z" fill="#394E80"/>
<path id="Vector_5" d="M47.1379 32.841H40.6696C39.2366 30.5918 37.951 28.6506 36.7859 27.0172C35.6342 25.3839 34.3754 23.697 33.0228 21.9565H30.5587V29.5743C30.5587 29.9626 30.6256 30.3107 30.7462 30.6186C30.8667 30.9131 31.1345 31.1407 31.5363 31.3014C31.7372 31.3817 32.0987 31.4487 32.6076 31.5156C33.1165 31.5825 33.5451 31.6227 33.8933 31.6361V32.841H23.7422V31.6361C24.01 31.6093 24.3984 31.5692 24.9207 31.5156C25.4296 31.4621 25.7912 31.3817 25.992 31.3014C26.3268 31.1541 26.5813 30.9399 26.7286 30.6588C26.8759 30.3776 26.9562 30.0161 26.9562 29.5743V12.2234C26.9562 11.8351 26.9027 11.4736 26.7821 11.1791C26.675 10.8712 26.4072 10.6436 25.992 10.4829C25.7108 10.3758 25.3492 10.2821 24.8939 10.2018C24.4386 10.1214 24.0636 10.0679 23.7422 10.0411V8.83618H34.8307C35.8485 8.83618 36.7993 8.94329 37.6966 9.14411C38.5938 9.35832 39.3973 9.69302 40.1205 10.1482C40.8169 10.6034 41.3793 11.1925 41.7945 11.9154C42.2096 12.6384 42.4239 13.522 42.4239 14.5529C42.4239 15.4767 42.2766 16.2933 41.9954 17.0029C41.7141 17.7125 41.299 18.3283 40.7365 18.8505C40.2276 19.3324 39.625 19.7609 38.9152 20.109C38.2055 20.4704 37.4153 20.765 36.5582 21.0193C37.7367 22.5857 38.7277 23.9112 39.5045 24.9822C40.2946 26.0533 41.2454 27.3519 42.3837 28.8915C42.8792 29.5743 43.3346 30.0697 43.7229 30.391C44.1247 30.7123 44.5264 30.9801 44.9148 31.1809C45.2094 31.3282 45.571 31.4353 46.0129 31.5156C46.4549 31.5959 46.8164 31.6361 47.1111 31.6495V32.8544L47.1379 32.841ZM38.2456 14.9545C38.2456 13.5086 37.8305 12.3572 36.9868 11.5004C36.1565 10.6436 34.978 10.2285 33.4513 10.2285H30.5721V20.5106H32.7951C34.3486 20.5106 35.6476 20.0152 36.6922 19.0111C37.7367 18.0204 38.2456 16.6548 38.2456 14.9545Z" fill="#394E80"/>
<path id="Vector_6" d="M58.5612 32.841H47.7539V31.6361C48.0619 31.6093 48.5039 31.5825 49.0797 31.5289C49.6556 31.4888 50.0573 31.4218 50.2984 31.3281C50.6733 31.1809 50.9412 30.98 51.1153 30.7257C51.2894 30.4713 51.3697 30.1232 51.3697 29.668V12.2769C51.3697 11.8886 51.3028 11.5539 51.1822 11.2862C51.0617 11.0184 50.7671 10.8042 50.2984 10.6168C49.9636 10.4829 49.535 10.349 49.0261 10.2419C48.5172 10.1214 48.0887 10.0545 47.7673 10.0277V8.82275H58.5746V10.0277C58.2264 10.0277 57.8112 10.0812 57.3157 10.1482C56.8336 10.2285 56.4051 10.3088 56.0435 10.4293C55.615 10.5632 55.3203 10.7908 55.1864 11.0853C55.0391 11.3933 54.9721 11.728 54.9721 12.1028V29.4806C54.9721 29.8554 55.0525 30.1768 55.2132 30.4713C55.3739 30.7524 55.6551 30.9934 56.0569 31.1541C56.2979 31.2478 56.6863 31.3415 57.222 31.4486C57.7577 31.5557 58.213 31.6093 58.588 31.6227V32.8276L58.5612 32.841Z" fill="#394E80"/>
<path id="Vector_7" d="M83.9655 32.841H73.9886V31.636C74.8724 31.5825 75.5956 31.462 76.1848 31.3013C76.7607 31.1273 77.0553 30.9265 77.0553 30.6721C77.0553 30.565 77.0553 30.4445 77.0151 30.2972C76.975 30.15 76.9616 30.0161 76.908 29.909L74.9126 24.527H66.4891C66.1677 25.3169 65.9132 25.9997 65.7124 26.5887C65.5115 27.1778 65.3374 27.7133 65.1767 28.2087C65.0294 28.6907 64.9222 29.0923 64.8687 29.3868C64.8151 29.6814 64.7883 29.9358 64.7883 30.1366C64.7883 30.5918 65.1499 30.9399 65.8597 31.1808C66.5694 31.4352 67.373 31.5691 68.2568 31.6227V32.8276H59.2173V31.6227C59.5119 31.5959 59.8735 31.5289 60.3154 31.4218C60.7574 31.3147 61.1189 31.1675 61.4002 30.9934C61.8555 30.6855 62.2037 30.3642 62.4447 30.0429C62.6992 29.7082 62.9402 29.253 63.1679 28.6639C64.3732 25.6516 65.7124 22.2644 67.1587 18.5157C68.6184 14.7537 69.9174 11.42 71.0557 8.48804H72.4083L80.4167 29.1994C80.5908 29.6412 80.7783 29.9893 80.9925 30.2705C81.2068 30.5382 81.5014 30.806 81.8898 31.0604C82.1442 31.221 82.4924 31.3549 82.9076 31.462C83.3227 31.5691 83.6709 31.6227 83.9521 31.636V32.841H83.9655ZM74.2966 23.0275L70.654 13.7094L67.0649 23.0275H74.2832H74.2966Z" fill="#394E80"/>
</g>
<g id="Group_4">
<path id="Vector_8" d="M31.8711 37.0181C31.8711 37.2457 31.8309 37.4332 31.7372 37.6072C31.6434 37.7813 31.5229 37.9151 31.3756 38.0356C31.2283 38.1427 31.0542 38.2365 30.8667 38.2766C30.6792 38.3168 30.4917 38.357 30.2908 38.357H29.8087V39.6556C29.8087 39.7225 29.8087 39.7895 29.8489 39.843C29.8757 39.8966 29.9159 39.9368 29.9962 39.9635C30.0364 39.9769 30.0899 39.9903 30.1837 40.0037C30.2774 40.0037 30.3578 40.0171 30.4381 40.0305V40.2447H28.6034V40.0305C28.6034 40.0305 28.724 40.0305 28.8177 40.0037C28.9115 40.0037 28.9784 39.9769 29.0052 39.9635C29.0588 39.9368 29.1123 39.8966 29.1391 39.843C29.1659 39.7895 29.1793 39.7225 29.1793 39.6556V36.5763C29.1793 36.5094 29.1793 36.4425 29.1525 36.3889C29.1391 36.3354 29.0856 36.2952 29.0052 36.2684C28.9249 36.2416 28.8579 36.2282 28.7775 36.2149C28.6972 36.2149 28.6436 36.2015 28.5767 36.1881V35.9739H30.5319C30.9336 35.9739 31.255 36.0676 31.4961 36.255C31.7505 36.4425 31.8711 36.6968 31.8711 37.0181ZM30.9604 37.7411C31.0274 37.6474 31.0676 37.5403 31.0943 37.4466C31.1211 37.3395 31.1211 37.2457 31.1211 37.1654C31.1211 37.0449 31.1077 36.9378 31.081 36.8173C31.0542 36.6968 31.0006 36.5897 30.947 36.5094C30.8801 36.4157 30.7863 36.3354 30.6658 36.2952C30.5453 36.2416 30.4114 36.2149 30.2373 36.2149H29.8087V38.1026H30.1167C30.331 38.1026 30.5051 38.0624 30.639 37.9955C30.7729 37.9285 30.8801 37.8482 30.947 37.7411H30.9604Z" fill="#394E80"/>
<path id="Vector_9" d="M35.7948 37.6475C35.7948 37.7546 35.768 37.835 35.7145 37.9153C35.6609 37.9956 35.5806 38.0358 35.4868 38.0358C35.3797 38.0358 35.2859 38.009 35.2324 37.9421C35.1788 37.8885 35.1386 37.8216 35.1386 37.7546C35.1386 37.7145 35.1386 37.6743 35.1386 37.6342C35.1386 37.594 35.152 37.5672 35.152 37.527C35.0583 37.527 34.9511 37.5672 34.8172 37.6475C34.6833 37.7279 34.5896 37.835 34.4958 37.9689V39.6959C34.4958 39.7629 34.5092 39.8298 34.536 39.87C34.5628 39.9101 34.603 39.9503 34.6699 39.9637C34.7235 39.9905 34.7904 40.0038 34.8708 40.0038C34.9511 40.0038 35.0181 40.0172 35.0717 40.0306V40.2314H33.5048V40.0306C33.5048 40.0306 33.5986 40.0306 33.6521 40.0306C33.7057 40.0306 33.7459 40.0306 33.786 40.0038C33.8396 39.9905 33.8798 39.9503 33.9066 39.9101C33.9334 39.87 33.9467 39.803 33.9467 39.7361V37.9019C33.9467 37.9019 33.9334 37.7814 33.9066 37.7145C33.8798 37.6609 33.8396 37.6074 33.786 37.5672C33.7459 37.5404 33.7057 37.527 33.6521 37.5137C33.5986 37.5003 33.545 37.5003 33.478 37.4869V37.2861L34.469 37.2191L34.5092 37.2593V37.6743H34.5226C34.6431 37.5137 34.7904 37.3932 34.9377 37.2994C35.0851 37.2191 35.2324 37.179 35.3529 37.179C35.4734 37.179 35.5806 37.2191 35.6609 37.2994C35.7413 37.3798 35.7814 37.4869 35.7814 37.6342L35.7948 37.6475Z" fill="#394E80"/>
<path id="Vector_10" d="M40.1739 38.7186C40.1739 38.9328 40.1471 39.1336 40.0802 39.3344C40.0132 39.5353 39.9195 39.7093 39.7989 39.8432C39.665 40.0038 39.5043 40.1243 39.3168 40.2047C39.1293 40.285 38.9285 40.3252 38.7008 40.3252C38.5133 40.3252 38.3258 40.285 38.1651 40.2181C38.0044 40.1511 37.8437 40.044 37.7098 39.9101C37.5759 39.7762 37.4821 39.6156 37.4018 39.4148C37.3214 39.2273 37.2812 38.9997 37.2812 38.7587C37.2812 38.2902 37.4152 37.9153 37.683 37.6208C37.9508 37.3262 38.3124 37.179 38.741 37.179C39.1695 37.179 39.5043 37.3128 39.7721 37.594C40.04 37.8751 40.1739 38.25 40.1739 38.7186ZM39.5579 38.7186C39.5579 38.5713 39.5445 38.4107 39.5177 38.2366C39.4909 38.0626 39.4374 37.9287 39.3838 37.8082C39.3168 37.6877 39.2365 37.5806 39.1293 37.5137C39.0222 37.4333 38.9017 37.4066 38.741 37.4066C38.5803 37.4066 38.4597 37.4467 38.3392 37.527C38.2187 37.6074 38.1383 37.7011 38.0714 37.835C38.0044 37.9555 37.9642 38.1027 37.9375 38.25C37.9107 38.4107 37.8973 38.5579 37.8973 38.7052C37.8973 38.8926 37.9107 39.0801 37.9375 39.2407C37.9642 39.4014 38.0178 39.5486 38.0848 39.6825C38.1517 39.8164 38.2455 39.9101 38.3392 39.9905C38.433 40.0708 38.5669 40.0976 38.7276 40.0976C38.982 40.0976 39.1829 39.9771 39.3302 39.7361C39.4775 39.4951 39.5445 39.1604 39.5445 38.732L39.5579 38.7186Z" fill="#394E80"/>
<path id="Vector_11" d="M45.0887 40.1778L44.0441 40.2447L44.004 40.2045V39.9234H43.9772C43.87 40.0305 43.7495 40.1242 43.5888 40.2045C43.4281 40.2849 43.2808 40.3116 43.1201 40.3116C42.9594 40.3116 42.7853 40.2715 42.638 40.2045C42.4773 40.1242 42.3434 40.0171 42.2228 39.8832C42.1023 39.7494 42.0086 39.5753 41.9416 39.3879C41.8747 39.187 41.8345 38.9728 41.8345 38.7452C41.8345 38.531 41.8747 38.3302 41.9416 38.1294C42.022 37.942 42.1157 37.7679 42.2496 37.6206C42.3702 37.4868 42.5175 37.3797 42.7049 37.2993C42.879 37.219 43.0665 37.1788 43.254 37.1788C43.3879 37.1788 43.5219 37.1922 43.6558 37.2324C43.7897 37.2726 43.9102 37.3127 44.004 37.3663V36.3354C44.004 36.2551 43.9906 36.1747 43.9638 36.1078C43.937 36.0408 43.8968 35.9873 43.8433 35.9471C43.7897 35.907 43.7093 35.8802 43.6156 35.8668C43.5219 35.8534 43.4147 35.84 43.3076 35.8266V35.6392L44.5262 35.5723L44.5664 35.6124V39.6155C44.5664 39.6824 44.5664 39.7493 44.6066 39.7895C44.6334 39.8431 44.6736 39.8832 44.7271 39.91C44.7673 39.9368 44.8209 39.9502 44.8878 39.9502C44.9548 39.9502 45.0217 39.9502 45.0887 39.9502V40.151V40.1778ZM44.004 39.6556V37.9152C44.004 37.9152 43.9638 37.8081 43.9236 37.7411C43.8834 37.6742 43.8433 37.6206 43.7897 37.5805C43.7361 37.5269 43.6692 37.4868 43.5888 37.46C43.5085 37.4332 43.4147 37.4064 43.321 37.4064C43.2004 37.4064 43.0933 37.4332 42.9862 37.5002C42.879 37.5671 42.7987 37.6474 42.7183 37.7679C42.638 37.875 42.5844 38.0223 42.5442 38.1963C42.5041 38.3704 42.4773 38.5578 42.4773 38.772C42.4773 38.9461 42.4907 39.0933 42.5309 39.2272C42.5576 39.3611 42.6112 39.495 42.6916 39.6155C42.7585 39.7226 42.8523 39.8163 42.9594 39.8832C43.0665 39.9502 43.2004 39.9903 43.3478 39.9903C43.5085 39.9903 43.6424 39.9502 43.7495 39.8832C43.8567 39.8163 43.937 39.736 44.0174 39.6556H44.004Z" fill="#394E80"/>
<path id="Vector_12" d="M49.7895 40.1777L48.8253 40.2447L48.7851 40.2045V39.8296H48.7717C48.7717 39.8296 48.6646 39.9367 48.611 39.9903C48.5575 40.0438 48.4771 40.0974 48.3968 40.1509C48.303 40.2045 48.2227 40.2447 48.1289 40.2714C48.0486 40.2982 47.9281 40.3116 47.7673 40.3116C47.4995 40.3116 47.2986 40.2313 47.1647 40.0572C47.0308 39.8832 46.9638 39.6422 46.9638 39.3075V37.8884C46.9638 37.8214 46.9638 37.7545 46.9237 37.7009C46.8969 37.6474 46.8567 37.6072 46.8031 37.567C46.763 37.5403 46.7228 37.5269 46.6692 37.5135C46.6156 37.5001 46.5621 37.5001 46.4951 37.4867V37.2859L47.4861 37.219L47.5263 37.2591V39.3209C47.5263 39.5351 47.5799 39.6957 47.6736 39.8029C47.7674 39.91 47.8879 39.9635 48.0218 39.9635C48.1289 39.9635 48.2361 39.9501 48.3164 39.91C48.3968 39.8698 48.4771 39.8296 48.5307 39.7895C48.5843 39.7493 48.6378 39.7091 48.678 39.6556C48.7182 39.602 48.745 39.5619 48.7717 39.5217V37.8348C48.7717 37.8348 48.7584 37.7143 48.7316 37.6608C48.7048 37.6072 48.6646 37.567 48.611 37.5269C48.5709 37.5001 48.5173 37.4867 48.4503 37.4867C48.3834 37.4867 48.303 37.4867 48.2093 37.4733V37.2725L49.294 37.2056L49.3342 37.2457V39.602C49.3342 39.669 49.3476 39.7225 49.3744 39.7761C49.4012 39.8296 49.4413 39.8698 49.4949 39.8966C49.5351 39.9233 49.5753 39.9367 49.6288 39.9367C49.6824 39.9367 49.736 39.9367 49.7895 39.9501V40.1509V40.1777Z" fill="#394E80"/>
<path id="Vector_13" d="M52.7625 40.3117C52.3339 40.3117 51.9991 40.1645 51.7581 39.8833C51.517 39.6022 51.3965 39.2139 51.3965 38.7319C51.3965 38.5177 51.4233 38.3303 51.4902 38.1429C51.5572 37.9554 51.6509 37.7948 51.7715 37.6475C51.892 37.5002 52.0393 37.3931 52.2134 37.2994C52.3875 37.2057 52.5884 37.1655 52.8026 37.1655C53.0973 37.1655 53.3249 37.2325 53.5124 37.3797C53.6999 37.5136 53.7802 37.7144 53.7802 37.9554C53.7802 38.0491 53.7535 38.1429 53.7133 38.2232C53.6597 38.3035 53.5794 38.3437 53.4722 38.3437C53.3517 38.3437 53.258 38.3169 53.191 38.25C53.124 38.1964 53.0973 38.1295 53.0973 38.0491C53.0973 37.9554 53.0973 37.8617 53.1374 37.768C53.1642 37.6743 53.1776 37.6073 53.1776 37.5538C53.1374 37.4868 53.0839 37.4467 53.0169 37.4333C52.9499 37.4065 52.8696 37.4065 52.7892 37.4065C52.6955 37.4065 52.6018 37.4333 52.508 37.4735C52.4277 37.5136 52.3339 37.5939 52.2536 37.7011C52.1732 37.8082 52.1197 37.942 52.0795 38.1027C52.0393 38.2767 52.0125 38.4776 52.0125 38.7185C52.0125 39.0934 52.0929 39.4013 52.267 39.6289C52.4411 39.8565 52.6553 39.977 52.9232 39.977C53.124 39.977 53.2847 39.9235 53.4053 39.8298C53.5258 39.736 53.6597 39.5888 53.7669 39.4013L53.9543 39.5218C53.8204 39.7628 53.6463 39.9503 53.4321 40.0841C53.2178 40.218 52.9901 40.2983 52.7625 40.2983V40.3117Z" fill="#394E80"/>
<path id="Vector_14" d="M57.2622 40.0975C57.1283 40.1511 57.0078 40.1912 56.8872 40.2314C56.7667 40.2715 56.6328 40.2849 56.4587 40.2849C56.2042 40.2849 56.0301 40.218 55.9364 40.0975C55.8293 39.977 55.7891 39.7896 55.7891 39.562V37.5538H55.2534V37.2592H55.8025V36.3354H56.3516V37.2592H57.2086V37.5538H56.3649V39.2139C56.3649 39.3344 56.3649 39.4415 56.3783 39.5218C56.3783 39.6021 56.4051 39.6825 56.4453 39.736C56.4721 39.7896 56.5256 39.8431 56.5926 39.8699C56.6596 39.8967 56.7399 39.9101 56.8471 39.9101C56.9006 39.9101 56.9676 39.9101 57.0747 39.8967C57.1819 39.8833 57.2354 39.8699 57.2756 39.8565V40.0707L57.2622 40.0975Z" fill="#394E80"/>
<path id="Vector_15" d="M60.7438 38.7719C60.8241 38.8389 60.8911 38.9326 60.9313 39.0263C60.9715 39.12 60.9982 39.2405 60.9982 39.3744C60.9982 39.6555 60.8911 39.8698 60.6902 40.0438C60.4893 40.2178 60.2215 40.3116 59.8867 40.3116C59.7126 40.3116 59.5519 40.2848 59.4046 40.2178C59.2573 40.1509 59.1502 40.0974 59.0966 40.0438L59.043 40.2446H58.8154L58.7886 39.2137H59.0028C59.0162 39.2941 59.0564 39.3878 59.11 39.4949C59.1635 39.602 59.2305 39.6957 59.2975 39.776C59.3778 39.8698 59.4716 39.9367 59.5787 40.0036C59.6858 40.0572 59.8064 40.0974 59.9537 40.0974C60.1412 40.0974 60.2885 40.0572 60.3956 39.9635C60.5027 39.8698 60.5563 39.7493 60.5563 39.5886C60.5563 39.5083 60.5429 39.4279 60.5027 39.3744C60.4626 39.3208 60.4224 39.2539 60.3554 39.2137C60.2885 39.1736 60.2081 39.12 60.1144 39.0932C60.0206 39.0531 59.9135 39.0129 59.793 38.9861C59.6992 38.9594 59.5921 38.9192 59.485 38.8656C59.3644 38.8121 59.2707 38.7585 59.1903 38.6916C59.0966 38.6247 59.0296 38.5309 58.9761 38.4372C58.9225 38.3301 58.8957 38.2096 58.8957 38.0758C58.8957 37.8348 58.9895 37.6339 59.1635 37.4599C59.3376 37.2859 59.5921 37.2055 59.8867 37.2055C60.0072 37.2055 60.1278 37.2189 60.2483 37.2457C60.3688 37.2725 60.4626 37.3126 60.5429 37.3528L60.6099 37.1921H60.8241L60.8643 38.1427H60.65C60.6099 37.9285 60.5161 37.7544 60.3822 37.6206C60.2483 37.4867 60.0742 37.4197 59.8733 37.4197C59.7126 37.4197 59.5787 37.4599 59.485 37.5402C59.3912 37.6206 59.3376 37.7277 59.3376 37.8348C59.3376 37.9285 59.351 37.9954 59.3778 38.0624C59.4046 38.1293 59.4582 38.1695 59.5117 38.2096C59.5653 38.2498 59.6457 38.29 59.7394 38.3167C59.8331 38.3569 59.9403 38.3971 60.0742 38.4372C60.2081 38.4774 60.3286 38.5309 60.4492 38.5845C60.5697 38.6381 60.6634 38.705 60.7438 38.7719Z" fill="#394E80"/>
<path id="Vector_16" d="M68.9132 38.9594L68.8194 40.2313H65.4849V40.0171C65.4849 40.0171 65.6054 40.0171 65.6991 39.9903C65.7929 39.9903 65.8598 39.9635 65.8866 39.9501C65.9402 39.9234 65.9938 39.8832 66.0205 39.8296C66.0473 39.7761 66.0607 39.7092 66.0607 39.6422V36.5897C66.0607 36.5228 66.0607 36.4558 66.0205 36.4157C65.9804 36.3755 65.9536 36.322 65.8866 36.2952C65.8464 36.2684 65.7795 36.2416 65.6857 36.2282C65.592 36.2149 65.5384 36.1881 65.4849 36.1881V35.9739H67.2928V36.1881C67.2928 36.1881 67.1589 36.1881 67.0785 36.2149C66.9848 36.2282 66.9178 36.255 66.8776 36.2684C66.8107 36.2952 66.7571 36.3354 66.7437 36.3889C66.7169 36.4425 66.7035 36.5094 66.7035 36.5763V39.4414C66.7035 39.5753 66.7035 39.6824 66.7169 39.7493C66.7169 39.8163 66.7571 39.8832 66.8107 39.9234C66.8508 39.9635 66.9312 39.9769 67.0115 39.9903C67.1053 39.9903 67.2258 40.0037 67.3999 40.0037C67.4803 40.0037 67.5472 40.0037 67.6276 40.0037C67.7079 40.0037 67.7883 40.0037 67.8552 39.9769C67.9222 39.9769 67.9891 39.9501 68.0561 39.9234C68.1097 39.8966 68.1632 39.8698 68.19 39.843C68.2704 39.7493 68.3641 39.6154 68.4713 39.428C68.5784 39.2406 68.6587 39.0933 68.6989 38.9728H68.9132V38.9594Z" fill="#394E80"/>
<path id="Vector_17" d="M72.1943 40.0975C72.0604 40.1511 71.9399 40.1912 71.8194 40.2314C71.6988 40.2715 71.5649 40.2849 71.3908 40.2849C71.1364 40.2849 70.9623 40.218 70.8685 40.0975C70.7614 39.977 70.7212 39.7896 70.7212 39.562V37.5538H70.1855V37.2592H70.7346V36.3354H71.2837V37.2592H72.1408V37.5538H71.2971V39.2139C71.2971 39.3344 71.2971 39.4415 71.3105 39.5218C71.3105 39.6021 71.3373 39.6825 71.3774 39.736C71.4042 39.7896 71.4578 39.8431 71.5247 39.8699C71.5917 39.8967 71.672 39.9101 71.7792 39.9101C71.8327 39.9101 71.8997 39.9101 72.0068 39.8967C72.114 39.8833 72.1675 39.8699 72.2077 39.8565V40.0707L72.1943 40.0975Z" fill="#394E80"/>
<path id="Vector_18" d="M76.9749 40.1778L75.9304 40.2447L75.8902 40.2045V39.9234H75.8634C75.7563 40.0305 75.6357 40.1242 75.475 40.2045C75.3143 40.2849 75.167 40.3116 75.0063 40.3116C74.8456 40.3116 74.6715 40.2715 74.5242 40.2045C74.3635 40.1242 74.2296 40.0171 74.1091 39.8832C73.9885 39.7494 73.8948 39.5753 73.8278 39.3879C73.7609 39.187 73.7207 38.9728 73.7207 38.7452C73.7207 38.531 73.7609 38.3302 73.8278 38.1294C73.9082 37.942 74.0019 37.7679 74.1358 37.6206C74.2564 37.4868 74.4037 37.3797 74.5912 37.2993C74.7653 37.219 74.9528 37.1788 75.1402 37.1788C75.2742 37.1788 75.4081 37.1922 75.542 37.2324C75.6759 37.2726 75.7964 37.3127 75.8902 37.3663V36.3354C75.8902 36.2551 75.8768 36.1747 75.85 36.1078C75.8232 36.0408 75.7831 35.9873 75.7295 35.9471C75.6759 35.907 75.5956 35.8802 75.5018 35.8668C75.4081 35.8534 75.3009 35.84 75.1938 35.8266V35.6392L76.4125 35.5723L76.4527 35.6124V39.6155C76.4527 39.6824 76.4527 39.7493 76.4928 39.7895C76.5196 39.8431 76.5598 39.8832 76.6134 39.91C76.6535 39.9368 76.7071 39.9502 76.7741 39.9502C76.841 39.9502 76.908 39.9502 76.9749 39.9502V40.151V40.1778ZM75.8902 39.6556V37.9152C75.8902 37.9152 75.85 37.8081 75.8098 37.7411C75.7697 37.6742 75.7295 37.6206 75.6759 37.5805C75.6224 37.5269 75.5554 37.4868 75.475 37.46C75.3947 37.4332 75.3009 37.4064 75.2072 37.4064C75.0867 37.4064 74.9795 37.4332 74.8724 37.5002C74.7653 37.5671 74.6849 37.6474 74.6046 37.7679C74.5242 37.875 74.4706 38.0223 74.4305 38.1963C74.3903 38.3704 74.3635 38.5578 74.3635 38.772C74.3635 38.9461 74.3769 39.0933 74.4171 39.2272C74.4439 39.3611 74.4974 39.495 74.5778 39.6155C74.6447 39.7226 74.7385 39.8163 74.8456 39.8832C74.9528 39.9502 75.0867 39.9903 75.234 39.9903C75.3947 39.9903 75.5286 39.9502 75.6357 39.8832C75.7429 39.8163 75.8232 39.736 75.9036 39.6556H75.8902Z" fill="#394E80"/>
<path id="Vector_19" d="M79.5329 39.8833C79.5329 39.9904 79.4928 40.0975 79.4124 40.1644C79.3321 40.2448 79.2383 40.2849 79.1178 40.2849C78.9973 40.2849 78.9035 40.2448 78.8232 40.1644C78.7428 40.0841 78.7026 39.9904 78.7026 39.8833C78.7026 39.7762 78.7428 39.6691 78.8232 39.5888C78.9035 39.5084 78.9973 39.4683 79.1178 39.4683C79.2383 39.4683 79.3321 39.5084 79.4124 39.5888C79.4928 39.6691 79.5329 39.7628 79.5329 39.8833Z" fill="#394E80"/>
</g>
<g id="Group_5">
<path id="Vector_20" d="M23.7553 37.9285H0.654297V38.5577H23.7553V37.9285Z" fill="#3A245D"/>
<path id="Vector_21" d="M126.056 37.9285H83.9653V38.5577H126.056V37.9285Z" fill="#3A245D"/>
</g>
</g>
</svg>
